# 3ds Max Wavefront OBJ Exporter v0.97b - (c)2007 guruware
# File Created: 22.06.2019 19:03:20

mtllib Hache.mtl

#
# object Hache
#

v  -50.1912 1.1977 0.0004
v  -50.1912 1.2092 0.0004
v  -50.2253 1.2075 0.0062
v  -50.2265 1.1968 0.0062
v  -50.1433 1.1919 -0.0052
v  -50.1407 1.2058 -0.0052
v  -50.1433 1.1919 -0.0056
v  -50.1407 1.2058 -0.0056
v  -50.1912 1.1977 -0.0111
v  -50.1912 1.2092 -0.0111
v  -50.2818 1.1943 -0.0185
v  -50.2818 1.2075 -0.0185
v  -50.2609 1.2075 -0.0179
v  -50.2609 1.1943 -0.0178
v  -50.1912 1.2553 -0.0112
v  -50.2250 1.2585 -0.0168
v  -50.2252 1.2585 0.0063
v  -50.1912 1.2553 0.0004
v  -50.1421 1.2567 -0.0052
v  -50.1421 1.2567 -0.0056
v  -50.2819 1.2603 -0.0186
v  -50.2818 1.2603 0.0082
v  -50.2609 1.2597 0.0075
v  -50.2610 1.2597 -0.0180
v  -50.2818 1.2471 -0.0186
v  -50.2818 1.2471 0.0082
v  -50.2264 1.1968 -0.0167
v  -50.2609 1.1943 0.0074
v  -50.1912 1.2437 0.0004
v  -50.2252 1.2471 0.0063
v  -50.1398 1.2192 -0.0052
v  -50.1912 1.2207 0.0004
v  -50.1395 1.2322 -0.0052
v  -50.1912 1.2322 0.0004
v  -50.1399 1.2447 -0.0052
v  -50.1398 1.2192 -0.0056
v  -50.1395 1.2322 -0.0056
v  -50.1399 1.2447 -0.0056
v  -50.1912 1.2207 -0.0111
v  -50.1912 1.2322 -0.0111
v  -50.1912 1.2437 -0.0112
v  -50.2610 1.2471 -0.0179
v  -50.2818 1.2339 0.0081
v  -50.2609 1.2339 0.0074
v  -50.2609 1.2471 0.0075
v  -50.2818 1.2207 0.0081
v  -50.2609 1.2207 0.0074
v  -50.2818 1.2075 0.0081
v  -50.2609 1.2075 0.0074
v  -50.2818 1.1943 0.0080
v  -50.2818 1.2339 -0.0186
v  -50.2818 1.2207 -0.0186
v  -50.2251 1.2339 -0.0167
v  -50.2251 1.2471 -0.0168
v  -50.2251 1.2207 -0.0167
v  -50.2251 1.2075 -0.0167
v  -50.2252 1.2339 0.0063
v  -50.2253 1.2207 0.0063
v  -50.2610 1.2339 -0.0179
v  -50.2610 1.2207 -0.0179
v  -50.2436 0.7510 0.0047
v  -50.2503 0.7510 0.0000
v  -50.2216 0.7510 0.0003
v  -50.2277 0.7510 0.0047
v  -50.2306 0.7801 0.0049
v  -50.2447 0.7801 0.0049
v  -50.2346 0.8106 0.0049
v  -50.2477 0.8106 0.0049
v  -50.2381 0.8579 0.0049
v  -50.2514 0.8579 0.0049
v  -50.2256 0.7801 0.0004
v  -50.2211 0.7510 -0.0102
v  -50.2256 0.7801 -0.0107
v  -50.2568 1.2073 0.0054
v  -50.2647 1.2073 0.0016
v  -50.2647 1.1923 0.0014
v  -50.2564 1.1923 0.0053
v  -50.2277 0.7510 -0.0150
v  -50.2306 0.7801 -0.0151
v  -50.2436 0.7510 -0.0150
v  -50.2447 0.7801 -0.0151
v  -50.2503 0.7510 -0.0102
v  -50.2497 0.7801 -0.0107
v  -50.2497 0.7801 0.0004
v  -50.2296 0.8106 0.0004
v  -50.2296 0.8106 -0.0107
v  -50.2346 0.8106 -0.0151
v  -50.2477 0.8106 -0.0151
v  -50.2527 0.8106 -0.0107
v  -50.2527 0.8106 0.0004
v  -50.2331 0.8579 -0.0107
v  -50.2331 0.8579 0.0004
v  -50.2514 0.8579 -0.0151
v  -50.2381 0.8579 -0.0151
v  -50.2564 0.8579 0.0004
v  -50.2564 0.8579 -0.0107
v  -50.2384 0.9575 0.0049
v  -50.2334 0.9575 0.0004
v  -50.2300 0.9897 0.0004
v  -50.2350 0.9897 0.0049
v  -50.2334 0.9575 -0.0106
v  -50.2384 0.9575 -0.0151
v  -50.2350 0.9897 -0.0151
v  -50.2300 0.9897 -0.0106
v  -50.2521 0.9575 -0.0151
v  -50.2570 0.9575 -0.0106
v  -50.2537 0.9897 -0.0106
v  -50.2488 0.9897 -0.0151
v  -50.2488 0.9897 0.0049
v  -50.2537 0.9897 0.0004
v  -50.2570 0.9575 0.0004
v  -50.2521 0.9575 0.0049
v  -50.2386 1.1923 0.0053
v  -50.2383 1.2073 0.0054
v  -50.2313 1.1923 0.0014
v  -50.2304 1.2073 0.0016
v  -50.2313 1.1923 -0.0116
v  -50.2304 1.2073 -0.0119
v  -50.2378 1.1923 -0.0155
v  -50.2374 1.2073 -0.0156
v  -50.2572 1.1923 -0.0155
v  -50.2577 1.2073 -0.0156
v  -50.2647 1.1923 -0.0116
v  -50.2647 1.2073 -0.0119
v  -50.2374 1.1291 0.0049
v  -50.2379 1.1513 0.0050
v  -50.2531 1.1512 0.0050
v  -50.2518 1.1291 0.0049
v  -50.2322 1.1291 -0.0107
v  -50.2323 1.1513 -0.0109
v  -50.2323 1.1513 0.0007
v  -50.2322 1.1291 0.0005
v  -50.2519 1.1291 -0.0152
v  -50.2533 1.1512 -0.0152
v  -50.2377 1.1513 -0.0152
v  -50.2373 1.1291 -0.0152
v  -50.2571 1.1291 0.0005
v  -50.2590 1.1511 0.0007
v  -50.2590 1.1511 -0.0109
v  -50.2571 1.1291 -0.0107
v  -50.2392 0.8828 0.0049
v  -50.2525 0.8828 0.0049
v  -50.2396 0.9077 0.0049
v  -50.2530 0.9077 0.0049
v  -50.2393 0.9326 0.0049
v  -50.2529 0.9326 0.0049
v  -50.2342 0.8828 -0.0106
v  -50.2342 0.8828 0.0004
v  -50.2346 0.9077 -0.0106
v  -50.2346 0.9077 0.0004
v  -50.2343 0.9326 -0.0106
v  -50.2343 0.9326 0.0004
v  -50.2525 0.8828 -0.0151
v  -50.2392 0.8828 -0.0151
v  -50.2530 0.9077 -0.0151
v  -50.2396 0.9077 -0.0151
v  -50.2528 0.9326 -0.0151
v  -50.2393 0.9326 -0.0151
v  -50.2575 0.8828 0.0004
v  -50.2575 0.8828 -0.0106
v  -50.2580 0.9077 0.0004
v  -50.2580 0.9077 -0.0106
v  -50.2578 0.9326 0.0004
v  -50.2578 0.9326 -0.0106
v  -50.2334 1.0145 0.0049
v  -50.2473 1.0145 0.0049
v  -50.2327 1.0393 0.0049
v  -50.2467 1.0393 0.0049
v  -50.2328 1.0641 0.0049
v  -50.2469 1.0640 0.0049
v  -50.2339 1.0889 0.0049
v  -50.2481 1.0889 0.0049
v  -50.2284 1.0145 -0.0106
v  -50.2284 1.0145 0.0004
v  -50.2277 1.0393 -0.0106
v  -50.2277 1.0393 0.0004
v  -50.2278 1.0641 -0.0106
v  -50.2278 1.0641 0.0004
v  -50.2288 1.0889 -0.0107
v  -50.2288 1.0889 0.0004
v  -50.2472 1.0145 -0.0151
v  -50.2334 1.0145 -0.0151
v  -50.2466 1.0393 -0.0151
v  -50.2327 1.0393 -0.0151
v  -50.2469 1.0640 -0.0151
v  -50.2328 1.0641 -0.0151
v  -50.2481 1.0888 -0.0152
v  -50.2339 1.0889 -0.0152
v  -50.2522 1.0145 0.0004
v  -50.2522 1.0145 -0.0106
v  -50.2516 1.0393 0.0004
v  -50.2516 1.0393 -0.0106
v  -50.2520 1.0640 0.0004
v  -50.2520 1.0640 -0.0106
v  -50.2532 1.0888 0.0004
v  -50.2532 1.0888 -0.0107
# 196 vertices

vn 0.0713 -0.6973 0.7132
vn 0.1395 -0.0005 0.9902
vn 0.1044 -0.0082 0.9945
vn 0.1009 -0.6896 0.7171
vn 0.5080 -0.6685 0.5431
vn 0.7497 -0.0964 0.6547
vn 0.5078 -0.6685 -0.5434
vn 0.7496 -0.0964 -0.6549
vn 0.0688 -0.6971 -0.7136
vn 0.1358 -0.0019 -0.9907
vn -0.5686 -0.5767 -0.5866
vn -0.6957 -0.0015 -0.7183
vn 0.0323 -0.0018 -0.9995
vn 0.0482 -0.7143 -0.6982
vn 0.1256 0.6955 -0.7074
vn 0.1109 0.6957 -0.7097
vn 0.1136 0.6944 0.7106
vn 0.1281 0.6971 0.7054
vn 0.5408 0.6391 0.5469
vn 0.5410 0.6391 -0.5467
vn -0.5603 0.5850 -0.5863
vn -0.5601 0.5851 0.5865
vn 0.0460 0.7057 0.7070
vn 0.0459 0.7057 -0.7071
vn -0.6956 -0.0015 -0.7184
vn -0.6953 -0.0015 0.7187
vn 0.0985 -0.6905 -0.7166
vn 0.0485 -0.7144 0.6981
vn 0.1022 -0.0017 0.9948
vn 0.7477 -0.0320 0.6633
vn 0.1388 -0.0005 0.9903
vn 0.7485 0.0042 0.6631
vn 0.7535 0.0787 0.6527
vn 0.7476 -0.0320 -0.6633
vn 0.7485 0.0042 -0.6631
vn 0.7537 0.0787 -0.6525
vn 0.1351 -0.0019 -0.9908
vn 0.1350 -0.0019 -0.9908
vn 0.1356 -0.0019 -0.9908
vn 0.0326 -0.0018 -0.9995
vn -0.6954 -0.0015 0.7187
vn 0.0326 -0.0018 0.9995
vn 0.0327 -0.0019 0.9995
vn -0.6954 -0.0015 0.7186
vn 0.0325 -0.0018 0.9995
vn -0.6955 -0.0015 0.7186
vn 0.0323 -0.0018 0.9995
vn -0.5684 -0.5768 0.5868
vn -0.6957 -0.0015 -0.7184
vn 0.0980 -0.0016 -0.9952
vn 0.0980 -0.0018 -0.9952
vn 0.1007 -0.0081 -0.9949
vn 0.1020 -0.0016 0.9948
vn 0.1017 -0.0016 0.9948
vn 0.0325 -0.0018 -0.9995
vn 0.0324 -0.0018 -0.9995
vn -0.2279 -0.6501 0.7249
vn -0.7051 -0.6128 0.3567
vn 0.7256 -0.5755 0.3773
vn 0.2497 -0.6344 0.7316
vn 0.3593 0.0389 0.9324
vn -0.3499 -0.0258 0.9364
vn 0.3506 0.0356 0.9358
vn -0.3587 -0.0320 0.9329
vn 0.3536 0.0205 0.9352
vn -0.3599 -0.0222 0.9327
vn 0.9056 0.1208 0.4066
vn 0.7508 -0.5639 -0.3441
vn 0.9040 0.1256 -0.4086
vn -0.2212 -0.0115 0.9752
vn -0.8415 -0.0077 0.5402
vn -0.8492 -0.0657 0.5240
vn -0.2224 -0.0181 0.9748
vn 0.2497 -0.6344 -0.7316
vn 0.3593 0.0389 -0.9324
vn -0.2279 -0.6501 -0.7249
vn -0.3499 -0.0258 -0.9364
vn -0.7051 -0.6128 -0.3567
vn -0.9088 -0.0398 -0.4154
vn -0.9088 -0.0398 0.4154
vn 0.9074 0.0940 0.4097
vn 0.9074 0.0940 -0.4097
vn 0.3506 0.0357 -0.9358
vn -0.3587 -0.0320 -0.9329
vn -0.9102 -0.0806 -0.4061
vn -0.9102 -0.0806 0.4061
vn 0.9109 0.0534 -0.4092
vn 0.9109 0.0534 0.4092
vn -0.3599 -0.0221 -0.9327
vn 0.3536 0.0205 -0.9352
vn -0.9122 -0.0554 0.4061
vn -0.9121 -0.0554 -0.4061
vn 0.3529 -0.0246 0.9354
vn 0.9108 -0.0645 0.4078
vn 0.9126 -0.0779 0.4013
vn 0.3647 -0.0316 0.9306
vn 0.9104 -0.0645 -0.4086
vn 0.3520 -0.0245 -0.9357
vn 0.3636 -0.0315 -0.9310
vn 0.9122 -0.0779 -0.4023
vn -0.3671 0.0250 -0.9299
vn -0.9140 0.0614 -0.4010
vn -0.9113 0.0750 -0.4049
vn -0.3570 0.0289 -0.9337
vn -0.3580 0.0290 0.9333
vn -0.9118 0.0750 0.4038
vn -0.9144 0.0614 0.4002
vn -0.3679 0.0250 0.9295
vn 0.2414 -0.0067 0.9704
vn 0.2208 -0.0108 0.9753
vn 0.8558 -0.0456 0.5154
vn 0.8460 -0.0616 0.5295
vn 0.8674 -0.0458 -0.4954
vn 0.8589 -0.0620 -0.5083
vn 0.2632 -0.0103 -0.9647
vn 0.2479 -0.0147 -0.9687
vn -0.2406 -0.0224 -0.9704
vn -0.2484 -0.0156 -0.9685
vn -0.8584 -0.0660 -0.5087
vn -0.8551 -0.0073 -0.5184
vn 0.3414 0.0168 0.9398
vn 0.3198 0.0017 0.9475
vn -0.3077 -0.0260 0.9511
vn -0.3475 -0.0279 0.9373
vn 0.9076 0.0374 -0.4181
vn 0.9001 -0.0151 -0.4355
vn 0.8960 -0.0152 0.4438
vn 0.9066 0.0373 0.4204
vn -0.3492 -0.0294 -0.9366
vn -0.3151 -0.0296 -0.9486
vn 0.3279 -0.0014 -0.9447
vn 0.3431 0.0155 -0.9392
vn -0.9045 -0.0852 0.4180
vn -0.8848 -0.1067 0.4536
vn -0.8887 -0.1071 -0.4458
vn -0.9055 -0.0853 -0.4157
vn 0.3548 0.0103 0.9349
vn -0.3600 -0.0118 0.9329
vn 0.3555 0.0011 0.9347
vn -0.3609 -0.0025 0.9326
vn 0.3563 -0.0081 0.9343
vn -0.3621 0.0068 0.9321
vn 0.9121 0.0270 -0.4090
vn 0.9122 0.0270 0.4089
vn 0.9127 0.0033 -0.4086
vn 0.9128 0.0033 0.4083
vn 0.9128 -0.0204 -0.4079
vn 0.9130 -0.0204 0.4073
vn -0.3599 -0.0117 -0.9329
vn 0.3546 0.0103 -0.9349
vn -0.3607 -0.0024 -0.9327
vn 0.3552 0.0012 -0.9348
vn -0.3616 0.0069 -0.9323
vn 0.3558 -0.0080 -0.9345
vn -0.9133 -0.0292 0.4062
vn -0.9133 -0.0292 -0.4063
vn -0.9141 -0.0057 0.4055
vn -0.9140 -0.0057 -0.4058
vn -0.9145 0.0179 0.4042
vn -0.9143 0.0179 -0.4047
vn 0.3643 -0.0175 0.9311
vn -0.3584 0.0153 0.9335
vn 0.3632 -0.0042 0.9317
vn -0.3568 0.0022 0.9342
vn 0.3610 0.0090 0.9325
vn -0.3539 -0.0107 0.9352
vn 0.3583 0.0232 0.9333
vn -0.3489 -0.0244 0.9369
vn 0.9140 -0.0437 -0.4033
vn 0.9145 -0.0437 0.4023
vn 0.9145 -0.0113 -0.4044
vn 0.9148 -0.0113 0.4038
vn 0.9136 0.0211 -0.4060
vn 0.9137 0.0211 0.4059
vn 0.9114 0.0564 -0.4076
vn 0.9111 0.0564 0.4082
vn -0.3573 0.0151 -0.9338
vn 0.3633 -0.0175 -0.9315
vn -0.3561 0.0021 -0.9344
vn 0.3625 -0.0043 -0.9320
vn -0.3537 -0.0109 -0.9353
vn 0.3608 0.0087 -0.9326
vn -0.3495 -0.0248 -0.9366
vn 0.3589 0.0229 -0.9331
vn -0.9137 0.0388 0.4046
vn -0.9132 0.0388 -0.4056
vn -0.9137 0.0044 0.4064
vn -0.9134 0.0044 -0.4071
vn -0.9120 -0.0299 0.4092
vn -0.9119 -0.0299 -0.4093
vn -0.9082 -0.0672 0.4131
vn -0.9085 -0.0672 -0.4124
# 192 vertex normals

vt 0.3058 0.8794 0.0000
vt 0.2872 0.8809 0.0000
vt 0.2800 0.8105 0.0000
vt 0.2955 0.8064 0.0000
vt 0.3158 0.9782 0.0000
vt 0.2964 0.9848 0.0000
vt 0.3167 0.9782 0.0000
vt 0.3372 0.9853 0.0000
vt 0.3370 0.9862 0.0000
vt 0.3163 0.9790 0.0000
vt 0.3306 0.8797 0.0000
vt 0.3492 0.8817 0.0000
vt 0.3473 0.6938 0.0000
vt 0.3683 0.6955 0.0000
vt 0.3648 0.7383 0.0000
vt 0.3451 0.7366 0.0000
vt 0.4226 0.8889 0.0000
vt 0.4315 0.8193 0.0000
vt 0.4771 0.8303 0.0000
vt 0.4460 0.8944 0.0000
vt 0.4154 0.9905 0.0000
vt 0.4146 0.9902 0.0000
vt 0.4509 0.7052 0.0000
vt 0.5050 0.7163 0.0000
vt 0.4951 0.7583 0.0000
vt 0.4440 0.7473 0.0000
vt 0.3474 0.5924 0.0000
vt 0.3474 0.6127 0.0000
vt 0.2925 0.6127 0.0000
vt 0.2924 0.5924 0.0000
vt 0.3416 0.8072 0.0000
vt 0.2938 0.7362 0.0000
vt 0.2331 0.8853 0.0000
vt 0.2154 0.8868 0.0000
vt 0.2030 0.8171 0.0000
vt 0.2204 0.8155 0.0000
vt 0.2764 0.9881 0.0000
vt 0.2689 0.8824 0.0000
vt 0.2569 0.9902 0.0000
vt 0.2509 0.8839 0.0000
vt 0.2379 0.9909 0.0000
vt 0.2193 0.9878 0.0000
vt 0.3574 0.9891 0.0000
vt 0.3572 0.9899 0.0000
vt 0.3770 0.9915 0.0000
vt 0.3769 0.9924 0.0000
vt 0.3960 0.9927 0.0000
vt 0.3960 0.9936 0.0000
vt 0.4148 0.9911 0.0000
vt 0.3677 0.8835 0.0000
vt 0.3860 0.8854 0.0000
vt 0.4042 0.8873 0.0000
vt 0.4303 0.7024 0.0000
vt 0.4249 0.7448 0.0000
vt 0.2104 0.6998 0.0000
vt 0.2307 0.6980 0.0000
vt 0.2341 0.7409 0.0000
vt 0.2139 0.7426 0.0000
vt 0.2511 0.6963 0.0000
vt 0.2541 0.7392 0.0000
vt 0.2716 0.6947 0.0000
vt 0.2741 0.7376 0.0000
vt 0.2925 0.6935 0.0000
vt 0.3473 0.6330 0.0000
vt 0.2925 0.6330 0.0000
vt 0.3472 0.6532 0.0000
vt 0.2926 0.6532 0.0000
vt 0.3472 0.6735 0.0000
vt 0.2926 0.6735 0.0000
vt 0.3957 0.8157 0.0000
vt 0.4151 0.8177 0.0000
vt 0.3763 0.8136 0.0000
vt 0.3569 0.8116 0.0000
vt 0.1948 0.7443 0.0000
vt 0.2404 0.8138 0.0000
vt 0.2603 0.8121 0.0000
vt 0.4048 0.7425 0.0000
vt 0.3847 0.7404 0.0000
vt 0.0994 0.0468 0.0000
vt 0.0896 0.0603 0.0000
vt 0.0907 0.0015 0.0000
vt 0.0996 0.0142 0.0000
vt 0.1374 0.0580 0.0000
vt 0.1346 0.1179 0.0000
vt 0.1055 0.1197 0.0000
vt 0.1054 0.0599 0.0000
vt 0.1316 0.1809 0.0000
vt 0.1047 0.1826 0.0000
vt 0.1316 0.2785 0.0000
vt 0.1045 0.2799 0.0000
vt 0.1525 0.0571 0.0000
vt 0.1485 0.1173 0.0000
vt 0.1740 0.0580 0.0000
vt 0.1712 0.1183 0.0000
vt 0.1057 0.9989 0.0000
vt 0.0872 0.9995 0.0000
vt 0.0873 0.9689 0.0000
vt 0.1053 0.9681 0.0000
vt 0.1904 0.0607 0.0000
vt 0.1848 0.1203 0.0000
vt 0.0205 0.0587 0.0000
vt 0.0529 0.0599 0.0000
vt 0.0535 0.1197 0.0000
vt 0.0245 0.1181 0.0000
vt 0.0690 0.0603 0.0000
vt 0.0678 0.1202 0.0000
vt 0.0911 0.1202 0.0000
vt 0.1455 0.1805 0.0000
vt 0.1683 0.1811 0.0000
vt 0.1820 0.1825 0.0000
vt 0.0545 0.1825 0.0000
vt 0.0277 0.1805 0.0000
vt 0.0682 0.1831 0.0000
vt 0.0908 0.1831 0.0000
vt 0.1682 0.2785 0.0000
vt 0.1455 0.2782 0.0000
vt 0.0544 0.2798 0.0000
vt 0.0273 0.2782 0.0000
vt 0.0908 0.2803 0.0000
vt 0.0682 0.2803 0.0000
vt 0.1328 0.4839 0.0000
vt 0.1467 0.4840 0.0000
vt 0.1490 0.5504 0.0000
vt 0.1353 0.5503 0.0000
vt 0.1694 0.4834 0.0000
vt 0.1832 0.4824 0.0000
vt 0.1852 0.5486 0.0000
vt 0.1715 0.5498 0.0000
vt 0.0559 0.4838 0.0000
vt 0.0693 0.4832 0.0000
vt 0.0704 0.5494 0.0000
vt 0.0566 0.5500 0.0000
vt 0.1070 0.5493 0.0000
vt 0.0932 0.5491 0.0000
vt 0.0916 0.4829 0.0000
vt 0.1050 0.4831 0.0000
vt 0.0689 0.0005 0.0000
vt 0.0593 0.0467 0.0000
vt 0.0592 0.0141 0.0000
vt 0.1416 0.9661 0.0000
vt 0.1433 0.9970 0.0000
vt 0.1585 0.9655 0.0000
vt 0.1608 0.9963 0.0000
vt 0.1850 0.9635 0.0000
vt 0.1881 0.9942 0.0000
vt 0.2006 0.9617 0.0000
vt 0.2041 0.9921 0.0000
vt 0.0450 0.9657 0.0000
vt 0.0420 0.9964 0.0000
vt 0.0005 0.9899 0.0000
vt 0.0062 0.9594 0.0000
vt 0.0616 0.9678 0.0000
vt 0.0588 0.9983 0.0000
vt 0.1361 0.8361 0.0000
vt 0.1376 0.8819 0.0000
vt 0.1064 0.8834 0.0000
vt 0.1065 0.8377 0.0000
vt 0.1735 0.8348 0.0000
vt 0.1761 0.8800 0.0000
vt 0.1523 0.8813 0.0000
vt 0.1504 0.8354 0.0000
vt 0.0555 0.8361 0.0000
vt 0.0521 0.8814 0.0000
vt 0.0205 0.8768 0.0000
vt 0.0260 0.8326 0.0000
vt 0.0923 0.8381 0.0000
vt 0.0911 0.8837 0.0000
vt 0.0670 0.8828 0.0000
vt 0.0694 0.8374 0.0000
vt 0.1875 0.8348 0.0000
vt 0.1903 0.8790 0.0000
vt 0.1317 0.3299 0.0000
vt 0.1044 0.3307 0.0000
vt 0.1319 0.3812 0.0000
vt 0.1044 0.3815 0.0000
vt 0.1321 0.4325 0.0000
vt 0.1045 0.4323 0.0000
vt 0.1682 0.3297 0.0000
vt 0.1455 0.3297 0.0000
vt 0.1683 0.3810 0.0000
vt 0.1456 0.3810 0.0000
vt 0.1684 0.4322 0.0000
vt 0.1458 0.4325 0.0000
vt 0.0543 0.3308 0.0000
vt 0.0270 0.3299 0.0000
vt 0.0543 0.3818 0.0000
vt 0.0268 0.3817 0.0000
vt 0.0546 0.4328 0.0000
vt 0.0270 0.4337 0.0000
vt 0.0282 0.4858 0.0000
vt 0.0284 0.5523 0.0000
vt 0.0907 0.3310 0.0000
vt 0.0681 0.3311 0.0000
vt 0.0907 0.3816 0.0000
vt 0.0681 0.3817 0.0000
vt 0.0908 0.4322 0.0000
vt 0.0683 0.4324 0.0000
vt 0.1821 0.4317 0.0000
vt 0.1821 0.3809 0.0000
vt 0.1820 0.3301 0.0000
vt 0.1820 0.2792 0.0000
vt 0.1365 0.6010 0.0000
vt 0.1079 0.6004 0.0000
vt 0.1368 0.6516 0.0000
vt 0.1081 0.6516 0.0000
vt 0.1370 0.7022 0.0000
vt 0.1081 0.7030 0.0000
vt 0.1370 0.7531 0.0000
vt 0.1079 0.7544 0.0000
vt 0.1729 0.6006 0.0000
vt 0.1504 0.6010 0.0000
vt 0.1732 0.6513 0.0000
vt 0.1506 0.6514 0.0000
vt 0.1733 0.7018 0.0000
vt 0.1507 0.7019 0.0000
vt 0.1733 0.7523 0.0000
vt 0.1507 0.7526 0.0000
vt 0.0575 0.6009 0.0000
vt 0.0291 0.6023 0.0000
vt 0.0578 0.6517 0.0000
vt 0.0292 0.6520 0.0000
vt 0.0577 0.7025 0.0000
vt 0.0288 0.7015 0.0000
vt 0.0573 0.7534 0.0000
vt 0.0281 0.7510 0.0000
vt 0.0941 0.6003 0.0000
vt 0.0714 0.6005 0.0000
vt 0.0942 0.6517 0.0000
vt 0.0715 0.6517 0.0000
vt 0.0942 0.7031 0.0000
vt 0.0715 0.7030 0.0000
vt 0.0941 0.7547 0.0000
vt 0.0712 0.7543 0.0000
vt 0.1867 0.5998 0.0000
vt 0.1869 0.6510 0.0000
vt 0.1871 0.7019 0.0000
vt 0.1871 0.7528 0.0000
vt 0.1901 0.7015 0.0000
vt 0.4096 0.6999 0.0000
vt 0.3890 0.6976 0.0000
# 240 texture coords

o Hache
g Hache
usemtl wire_166229229
s 1
f 1/1/1 2/2/2 3/3/3 4/4/4 
f 5/5/5 6/6/6 2/2/2 1/1/1 
s 2
f 7/7/7 8/8/8 6/9/6 5/10/5 
s 1
f 9/11/9 10/12/10 8/8/8 7/7/7 
f 11/13/11 12/14/12 13/15/13 14/16/14 
s 4
f 15/17/15 16/18/16 17/19/17 18/20/18 
f 19/21/19 20/22/20 15/17/15 18/20/18 
f 21/23/21 22/24/22 23/25/23 24/26/24 
s 2
f 21/27/21 25/28/25 26/29/26 22/30/22 
s 4
f 9/11/9 7/7/7 5/5/5 1/1/1 
f 1/1/1 4/4/4 27/31/27 9/11/9 
f 27/31/27 4/4/4 28/32/28 14/16/14 
s 1
f 29/33/2 18/34/18 17/35/17 30/36/29 
f 6/6/6 31/37/30 32/38/31 2/2/2 
f 31/37/30 33/39/32 34/40/31 32/38/31 
f 33/39/32 35/41/33 29/33/2 34/40/31 
f 35/41/33 19/42/19 18/34/18 29/33/2 
s 2
f 8/8/8 36/43/34 31/44/30 6/9/6 
f 36/43/34 37/45/35 33/46/32 31/44/30 
f 37/45/35 38/47/36 35/48/33 33/46/32 
f 38/47/36 20/22/20 19/49/19 35/48/33 
s 1
f 10/12/10 39/50/37 36/43/34 8/8/8 
f 39/50/37 40/51/38 37/45/35 36/43/34 
f 40/51/38 41/52/39 38/47/36 37/45/35 
f 41/52/39 15/17/15 20/22/20 38/47/36 
f 25/53/25 21/23/21 24/26/24 42/54/40 
f 26/55/26 43/56/41 44/57/42 45/58/43 
f 43/56/41 46/59/44 47/60/45 44/57/42 
f 46/59/44 48/61/46 49/62/47 47/60/45 
f 48/61/46 50/63/48 28/32/28 49/62/47 
s 2
f 25/28/25 51/64/25 43/65/41 26/29/26 
f 51/64/25 52/66/49 46/67/44 43/65/41 
f 52/66/49 12/68/12 48/69/46 46/67/44 
f 12/68/12 11/13/11 50/63/48 48/69/46 
s 1
f 41/52/39 40/51/38 53/70/50 54/71/51 
f 40/51/38 39/50/37 55/72/50 53/70/50 
f 39/50/37 10/12/10 56/73/52 55/72/50 
f 10/12/10 9/11/9 27/31/27 56/73/52 
f 17/35/17 23/74/23 45/58/43 30/36/29 
f 16/18/16 15/17/15 41/52/39 54/71/51 
f 57/75/53 34/40/31 29/33/2 30/36/29 
f 58/76/54 32/38/31 34/40/31 57/75/53 
f 3/3/3 2/2/2 32/38/31 58/76/54 
f 53/70/50 59/77/55 42/54/40 54/71/51 
f 55/72/50 60/78/56 59/77/55 53/70/50 
f 56/73/52 13/15/13 60/78/56 55/72/50 
f 61/79/57 62/80/58 63/81/59 64/82/60 
s 2
f 64/83/60 65/84/61 66/85/62 61/86/57 
f 65/84/61 67/87/63 68/88/64 66/85/62 
f 67/87/63 69/89/65 70/90/66 68/88/64 
f 64/83/60 63/91/59 71/92/67 65/84/61 
s 4
f 63/91/59 72/93/68 73/94/69 71/92/67 
s 2
f 74/95/70 75/96/71 76/97/72 77/98/73 
f 72/93/68 78/99/74 79/100/75 73/94/69 
f 78/101/74 80/102/76 81/103/77 79/104/75 
f 80/102/76 82/105/78 83/106/79 81/103/77 
f 66/85/62 84/107/80 62/80/58 61/86/57 
s 4
f 84/107/80 83/106/79 82/105/78 62/80/58 
s 2
f 65/84/61 71/92/67 85/108/81 67/87/63 
s 4
f 71/92/67 73/94/69 86/109/82 85/108/81 
s 2
f 73/94/69 79/100/75 87/110/83 86/109/82 
f 79/104/75 81/103/77 88/111/84 87/112/83 
f 81/103/77 83/106/79 89/113/85 88/111/84 
f 68/88/64 90/114/86 84/107/80 66/85/62 
s 4
f 90/114/86 89/113/85 83/106/79 84/107/80 
f 85/108/81 86/109/82 91/115/87 92/116/88 
s 2
f 87/112/83 88/111/84 93/117/89 94/118/90 
s 4
f 95/119/91 96/120/92 89/113/85 90/114/86 
s 2
f 97/121/93 98/122/94 99/123/95 100/124/96 
f 101/125/97 102/126/98 103/127/99 104/128/100 
f 105/129/101 106/130/102 107/131/103 108/132/104 
f 109/133/105 110/134/106 111/135/107 112/136/108 
s 1
f 62/80/58 82/105/78 72/137/68 63/81/59 
f 82/105/78 80/138/76 78/139/74 72/137/68 
s 2
f 113/140/109 114/141/110 74/95/70 77/98/73 
f 115/142/111 116/143/112 114/141/110 113/140/109 
s 4
f 117/144/113 118/145/114 116/143/112 115/142/111 
s 2
f 119/146/115 120/147/116 118/145/114 117/144/113 
f 121/148/117 122/149/118 120/150/116 119/151/115 
f 123/152/119 124/153/120 122/149/118 121/148/117 
s 4
f 76/97/72 75/96/71 124/153/120 123/152/119 
s 2
f 125/154/121 126/155/122 127/156/123 128/157/124 
f 126/155/122 113/140/109 77/98/73 127/156/123 
s 4
f 129/158/125 130/159/126 131/160/127 132/161/128 
f 130/159/126 117/144/113 115/142/111 131/160/127 
s 2
f 133/162/129 134/163/130 135/164/131 136/165/132 
f 134/163/130 121/148/117 119/151/115 135/164/131 
s 4
f 137/166/133 138/167/134 139/168/135 140/169/136 
f 138/167/134 76/97/72 123/152/119 139/168/135 
s 2
f 128/157/124 127/156/123 138/167/134 137/166/133 
f 127/156/123 77/98/73 76/97/72 138/167/134 
f 132/161/128 131/160/127 126/155/122 125/154/121 
f 131/160/127 115/142/111 113/140/109 126/155/122 
f 136/170/132 135/171/131 130/159/126 129/158/125 
f 135/171/131 119/146/115 117/144/113 130/159/126 
f 140/169/136 139/168/135 134/163/130 133/162/129 
f 139/168/135 123/152/119 121/148/117 134/163/130 
f 69/89/65 141/172/137 142/173/138 70/90/66 
f 141/172/137 143/174/139 144/175/140 142/173/138 
f 143/174/139 145/176/141 146/177/142 144/175/140 
f 145/176/141 97/121/93 112/136/108 146/177/142 
f 97/121/93 100/124/96 109/133/105 112/136/108 
s 4
f 91/115/87 147/178/143 148/179/144 92/116/88 
f 147/178/143 149/180/145 150/181/146 148/179/144 
f 149/180/145 151/182/147 152/183/148 150/181/146 
f 151/182/147 101/125/97 98/122/94 152/183/148 
f 101/125/97 104/128/100 99/123/95 98/122/94 
s 2
f 93/117/89 153/184/149 154/185/150 94/118/90 
f 153/184/149 155/186/151 156/187/152 154/185/150 
f 155/186/151 157/188/153 158/189/154 156/187/152 
f 157/188/153 105/129/101 102/190/98 158/189/154 
f 105/129/101 108/132/104 103/191/99 102/190/98 
s 4
f 95/119/91 159/192/155 160/193/156 96/120/92 
f 159/192/155 161/194/157 162/195/158 160/193/156 
f 161/194/157 163/196/159 164/197/160 162/195/158 
f 163/196/159 111/135/107 106/130/102 164/197/160 
f 111/135/107 110/134/106 107/131/103 106/130/102 
s 2
f 111/135/107 163/196/159 146/177/142 112/136/108 
f 163/196/159 161/194/157 144/175/140 146/177/142 
f 161/194/157 159/192/155 142/173/138 144/175/140 
f 159/192/155 95/119/91 70/90/66 142/173/138 
f 95/119/91 90/114/86 68/88/64 70/90/66 
f 97/121/93 145/176/141 152/183/148 98/122/94 
f 145/176/141 143/174/139 150/181/146 152/183/148 
f 143/174/139 141/172/137 148/179/144 150/181/146 
f 141/172/137 69/89/65 92/116/88 148/179/144 
f 69/89/65 67/87/63 85/108/81 92/116/88 
f 101/125/97 151/182/147 158/198/154 102/126/98 
f 151/182/147 149/180/145 156/199/152 158/198/154 
f 149/180/145 147/178/143 154/200/150 156/199/152 
f 147/178/143 91/115/87 94/201/90 154/200/150 
f 91/115/87 86/109/82 87/110/83 94/201/90 
f 105/129/101 157/188/153 164/197/160 106/130/102 
f 157/188/153 155/186/151 162/195/158 164/197/160 
f 155/186/151 153/184/149 160/193/156 162/195/158 
f 153/184/149 93/117/89 96/120/92 160/193/156 
f 93/117/89 88/111/84 89/113/85 96/120/92 
f 100/124/96 165/202/161 166/203/162 109/133/105 
f 165/202/161 167/204/163 168/205/164 166/203/162 
f 167/204/163 169/206/165 170/207/166 168/205/164 
f 169/206/165 171/208/167 172/209/168 170/207/166 
f 171/208/167 125/154/121 128/157/124 172/209/168 
s 4
f 104/128/100 173/210/169 174/211/170 99/123/95 
f 173/210/169 175/212/171 176/213/172 174/211/170 
f 175/212/171 177/214/173 178/215/174 176/213/172 
f 177/214/173 179/216/175 180/217/176 178/215/174 
f 179/216/175 129/158/125 132/161/128 180/217/176 
s 2
f 108/132/104 181/218/177 182/219/178 103/191/99 
f 181/218/177 183/220/179 184/221/180 182/219/178 
f 183/220/179 185/222/181 186/223/182 184/221/180 
f 185/222/181 187/224/183 188/225/184 186/223/182 
f 187/224/183 133/162/129 136/165/132 188/225/184 
s 4
f 110/134/106 189/226/185 190/227/186 107/131/103 
f 189/226/185 191/228/187 192/229/188 190/227/186 
f 191/228/187 193/230/189 194/231/190 192/229/188 
f 193/230/189 195/232/191 196/233/192 194/231/190 
f 195/232/191 137/166/133 140/169/136 196/233/192 
s 2
f 109/133/105 166/203/162 189/226/185 110/134/106 
f 166/203/162 168/205/164 191/228/187 189/226/185 
f 168/205/164 170/207/166 193/230/189 191/228/187 
f 170/207/166 172/209/168 195/232/191 193/230/189 
f 172/209/168 128/157/124 137/166/133 195/232/191 
f 99/123/95 174/211/170 165/202/161 100/124/96 
f 174/211/170 176/213/172 167/204/163 165/202/161 
f 176/213/172 178/215/174 169/206/165 167/204/163 
f 178/215/174 180/217/176 171/208/167 169/206/165 
f 180/217/176 132/161/128 125/154/121 171/208/167 
f 103/127/99 182/234/178 173/210/169 104/128/100 
f 182/234/178 184/235/180 175/212/171 173/210/169 
f 184/235/180 186/236/182 177/214/173 175/212/171 
f 186/236/182 188/237/184 179/216/175 177/214/173 
f 188/237/184 136/170/132 129/158/125 179/216/175 
f 107/131/103 190/227/186 181/218/177 108/132/104 
f 190/227/186 192/229/188 183/220/179 181/218/177 
f 192/229/188 194/231/190 185/222/181 183/220/179 
f 194/231/190 196/233/192 187/224/183 185/222/181 
f 196/233/192 140/169/136 133/162/129 187/224/183 
s 1
f 13/15/13 56/73/52 27/31/27 14/16/14 
s 4
f 23/25/23 17/19/17 16/18/16 24/26/24 
f 28/32/28 50/63/48 11/13/11 14/16/14 
s 1
f 24/26/24 16/18/16 54/71/51 42/54/40 
f 44/57/42 57/75/53 30/36/29 45/58/43 
f 47/60/45 58/76/54 57/75/53 44/57/42 
f 49/62/47 3/3/3 58/76/54 47/60/45 
f 28/32/28 4/4/4 3/3/3 49/62/47 
f 23/74/23 22/238/22 26/55/26 45/58/43 
f 59/77/55 51/239/25 25/53/25 42/54/40 
f 60/78/56 52/240/49 51/239/25 59/77/55 
f 13/15/13 12/14/12 52/240/49 60/78/56 
# 189 polygons

