# File produced by Open Asset Import Library (http://www.assimp.sf.net)
# (assimp v3.1.31193554)

mtllib chalkboard.mtl

# vertex positions
v -0.021927 0.846144 -0.727077
v -0.021927 0.846144 0.712062
v -0.021927 3.211119 0.712062
v -0.021927 3.211119 -0.727077
v 0.021227 0.846144 0.712062
v 0.021227 0.846144 -0.727077
v 0.021227 3.211119 -0.727077
v 0.021227 3.211119 0.712062
v -0.021927 3.328873 0.712062
v -0.021927 3.328873 0.819151
v 0.021227 3.328873 0.819151
v 0.021227 3.328873 0.712062
v -0.021927 3.211119 0.819151
v 0.021227 3.211119 0.819151
v 0.033219 3.328873 0.712062
v 0.033219 3.328873 -0.727077
v 0.021227 3.328873 -0.727077
v 0.021227 0.733815 0.712062
v 0.021227 0.733815 0.819151
v -0.021927 0.733815 0.819151
v -0.021927 0.733815 0.712062
v -0.021927 3.211119 -0.820637
v -0.035771 3.211119 -0.820637
v -0.035771 3.328873 -0.820637
v -0.021927 3.328873 -0.820637
v 0.021227 3.211119 -0.820637
v 0.021227 3.328873 -0.820637
v 0.021227 0.846144 -0.820637
v -0.021927 0.846144 -0.820637
v -0.035771 3.328873 -0.727077
v -0.021927 3.328873 -0.727077
v 0.033219 0.846144 -0.727077
v 0.033219 3.211119 -0.727077
v -0.021927 0.846144 0.819151
v 0.021227 0.846144 0.819151
v 0.021227 0.733815 -0.727077
v 0.033219 0.733815 -0.727077
v 0.033219 0.733815 0.712062
v -0.035771 0.846144 0.819151
v -0.035771 0.733815 0.819151
v 0.021227 0.733815 -0.820637
v -0.021927 0.733815 -0.820637
v -0.021927 0.733815 -0.727077
v -0.035771 0.733815 -0.727077
v -0.035771 0.733815 -0.820637
v 0.033219 0.846144 0.819151
v 0.033219 3.211119 0.819151
v 0.033219 0.846144 -0.820637
v 0.033219 0.733815 -0.820637
v -0.035771 3.211119 -0.727077
v -0.035771 0.846144 -0.727077
v -0.035771 3.211119 0.712062
v -0.035771 0.846144 0.712062
v -0.035771 0.846144 -0.820637
v 0.033219 3.328873 0.819151
v 0.033219 0.846144 0.712062
v 0.033219 3.211119 -0.820637
v 0.033219 3.328873 -0.820637
v 0.033219 0.733815 0.819151
v 0.033219 3.211119 0.712062
v -0.035771 3.211119 0.819151
v -0.035771 3.328873 0.819151
v -0.035771 3.328873 0.712062
v -0.035771 0.733815 0.712062

# UV coordinates
vt 0.820801 0.000000
vt 0.820801 0.497993
vt 0.000000 0.497993
vt 0.000000 0.000000
vt 0.820801 0.502006
vt 0.820801 0.999999
vt 0.000000 0.999999
vt 0.000000 0.502006
vt 0.632123 0.389988
vt 0.630549 0.374944
vt 0.635401 0.370396
vt 0.639537 0.386718
vt 0.613757 0.376475
vt 0.616368 0.369167
vt 0.630787 0.367708
vt 0.629668 0.374018
vt 0.641524 0.385754
vt 0.759884 0.607928
vt 0.757605 0.608424
vt 0.232258 0.186781
vt 0.239741 0.191275
vt 0.238389 0.195046
vt 0.228372 0.193984
vt 0.759431 0.627299
vt 0.756851 0.628500
vt 0.753096 0.620114
vt 0.754277 0.619573
vt 0.766940 0.622694
vt 0.757959 0.617182
vt 0.980316 0.984982
vt 0.973704 0.988920
vt 0.748945 0.613338
vt 0.750932 0.611906
vt 0.998352 0.974348
vt 0.996518 0.975421
vt 0.781627 0.606884
vt 0.783475 0.605834
vt 0.242788 0.203766
vt 0.247620 0.196766
vt 0.032800 0.030730
vt 0.034252 0.029126
vt 0.233663 0.185017
vt 0.240951 0.205885
vt 0.237487 0.196086
vt 0.022700 0.020260
vt 0.015958 0.022513
vt 0.020055 0.000413
vt 0.028800 0.002521
vt 0.027457 0.036451
vt 0.025753 0.038276
vt 0.013546 0.023344
vt 0.248585 0.194676
vt 0.617043 0.367122
vt 0.031206 0.003255
vt 0.024707 0.019764
vt 0.735219 0.633739
vt 0.737329 0.632492
vt 0.957378 0.998730
vt 0.955278 0.999999
vt 0.606088 0.399746
vt 0.607656 0.397786
vt 0.224434 0.222196
vt 0.225651 0.220067
vt 0.017642 0.000000
vt 0.618532 0.365497
vt 0.630810 0.365667
vt 0.253882 0.172468
vt 0.252818 0.174300
vt 0.047014 0.013815
vt 0.048373 0.012198
vt 0.768860 0.620987
vt 0.758891 0.616565
vt 0.982157 0.983894
vt 0.240451 0.190381
vt 0.624818 0.349931
vt 0.653827 0.359704
vt 0.660294 0.376393
vt 0.636927 0.369247
vt 0.625691 0.348004
vt 0.662157 0.375386
vt 0.612991 0.378875
vt 0.628869 0.375999
vt 0.629698 0.390983
vt 0.227594 0.196818
vt 0.012183 0.053456
vt 0.971583 0.990185
vt 0.000000 0.039549
vt 0.010608 0.055329

# vertex normals
vn -1.000000 0.000000 0.000000
vn 1.000000 0.000000 0.000000
vn 0.000000 1.000000 0.000000
vn 0.000000 0.000000 1.000000
vn 0.000000 -1.000000 0.000000
vn 0.000000 0.000000 -1.000000

# Mesh
g Cube_Cube
usemtl Material.001
f 4/4/1 1/1/1 2/2/1
f 2/2/1 3/3/1 4/4/1
f 8/8/2 5/5/2 6/6/2
f 6/6/2 7/7/2 8/8/2

# Mesh
g Cube_Cube
usemtl Material
f 12/12/3 9/9/3 10/10/3
f 10/10/3 11/11/3 12/12/3
f 10/16/4 13/13/4 14/14/4
f 14/14/4 11/15/4 10/16/4
f 17/19/3 12/12/3 15/17/3
f 15/17/3 16/18/3 17/19/3
f 21/23/5 18/20/5 19/21/5
f 19/21/5 20/22/5 21/23/5
f 25/27/6 22/24/6 23/25/6
f 23/25/6 24/26/6 25/27/6
f 27/29/6 26/28/6 22/24/6
f 22/24/6 25/27/6 27/29/6
f 26/28/6 28/30/6 29/31/6
f 29/31/6 22/24/6 26/28/6
f 31/33/3 25/27/3 24/26/3
f 24/26/3 30/32/3 31/33/3
f 7/37/4 6/34/4 32/35/4
f 32/35/4 33/36/4 7/37/4
f 13/13/4 34/38/4 35/39/4
f 35/39/4 14/14/4 13/13/4
f 34/38/4 20/22/4 19/21/4
f 19/21/4 35/39/4 34/38/4
f 18/20/5 36/40/5 37/41/5
f 37/41/5 38/42/5 18/20/5
f 20/22/4 34/38/4 39/43/4
f 39/43/4 40/44/4 20/22/4
f 28/48/6 41/45/6 42/46/6
f 42/46/6 29/47/6 28/48/6
f 42/46/5 43/49/5 44/50/5
f 44/50/5 45/51/5 42/46/5
f 14/14/4 35/39/4 46/52/4
f 46/52/4 47/53/4 14/14/4
f 41/45/6 28/48/6 48/54/6
f 48/54/6 49/55/6 41/45/6
f 1/59/4 4/56/4 50/57/4
f 50/57/4 51/58/4 1/59/4
f 43/49/5 36/40/5 18/20/5
f 18/20/5 21/23/5 43/49/5
f 36/40/5 41/45/5 49/55/5
f 49/55/5 37/41/5 36/40/5
f 17/19/3 31/33/3 9/9/3
f 9/9/3 12/12/3 17/19/3
f 27/29/3 25/27/3 31/33/3
f 31/33/3 17/19/3 27/29/3
f 42/46/5 41/45/5 36/40/5
f 36/40/5 43/49/5 42/46/5
f 4/56/5 3/60/5 52/61/5
f 52/61/5 50/57/5 4/56/5
f 3/60/6 2/62/6 53/63/6
f 53/63/6 52/61/6 3/60/6
f 29/47/6 42/46/6 45/51/6
f 45/51/6 54/64/6 29/47/6
f 11/15/4 14/14/4 47/65/4
f 47/65/4 55/66/4 11/15/4
f 6/70/3 5/67/3 56/68/3
f 56/68/3 32/69/3 6/70/3
f 16/18/2 33/36/2 57/71/2
f 57/71/2 58/72/2 16/18/2
f 33/36/2 32/35/2 48/73/2
f 48/73/2 57/71/2 33/36/2
f 32/69/2 37/41/2 49/55/2
f 49/55/2 48/54/2 32/69/2
f 46/52/2 59/74/2 38/42/2
f 38/42/2 56/68/2 46/52/2
f 47/53/2 46/52/2 56/68/2
f 56/68/2 60/75/2 47/53/2
f 55/78/2 47/76/2 60/77/2
f 60/77/2 15/17/2 55/78/2
f 56/68/2 38/42/2 37/41/2
f 37/41/2 32/69/2 56/68/2
f 15/17/2 60/77/2 33/36/2
f 33/36/2 16/18/2 15/17/2
f 28/30/6 26/28/6 57/71/6
f 57/71/6 48/73/6 28/30/6
f 19/21/5 18/20/5 38/42/5
f 38/42/5 59/74/5 19/21/5
f 26/28/6 27/29/6 58/72/6
f 58/72/6 57/71/6 26/28/6
f 12/12/3 11/11/3 55/78/3
f 55/78/3 15/17/3 12/12/3
f 35/39/4 19/21/4 59/74/4
f 59/74/4 46/52/4 35/39/4
f 5/67/6 8/79/6 60/75/6
f 60/75/6 56/68/6 5/67/6
f 27/29/3 17/19/3 16/18/3
f 16/18/3 58/72/3 27/29/3
f 8/80/5 7/37/5 33/36/5
f 33/36/5 60/77/5 8/80/5
f 63/83/1 52/61/1 61/81/1
f 61/81/1 62/82/1 63/83/1
f 52/61/1 53/63/1 39/43/1
f 39/43/1 61/81/1 52/61/1
f 53/63/1 64/84/1 40/44/1
f 40/44/1 39/43/1 53/63/1
f 51/85/1 44/50/1 64/84/1
f 64/84/1 53/63/1 51/85/1
f 30/32/1 50/57/1 52/61/1
f 52/61/1 63/83/1 30/32/1
f 24/26/1 23/25/1 50/57/1
f 50/57/1 30/32/1 24/26/1
f 23/25/1 54/86/1 51/58/1
f 51/58/1 50/57/1 23/25/1
f 54/87/1 45/51/1 44/50/1
f 44/50/1 51/85/1 54/87/1
f 22/24/6 29/31/6 54/86/6
f 54/86/6 23/25/6 22/24/6
f 2/62/3 1/88/3 51/85/3
f 51/85/3 53/63/3 2/62/3
f 34/38/4 13/13/4 61/81/4
f 61/81/4 39/43/4 34/38/4
f 13/13/4 10/16/4 62/82/4
f 62/82/4 61/81/4 13/13/4
f 9/9/3 31/33/3 30/32/3
f 30/32/3 63/83/3 9/9/3
f 10/10/3 9/9/3 63/83/3
f 63/83/3 62/82/3 10/10/3
f 43/49/5 21/23/5 64/84/5
f 64/84/5 44/50/5 43/49/5
f 21/23/5 20/22/5 40/44/5
f 40/44/5 64/84/5 21/23/5
